<svg xmlns="http://www.w3.org/2000/svg" xmlns:xlink="http://www.w3.org/1999/xlink" version="1.1" enable-background="new 0 0 1000 1000" xml:space="preserve" width="993.3333335982425" height="850.0000059604645" style=""><rect id="backgroundrect" width="100%" height="100%" x="0" y="0" fill="none" stroke="none" class="" style=""/>
<metadata> Svg Vector Icons : http://www.onlinewebfonts.com/icon </metadata>

<g class="currentLayer" style=""><title>Layer 1</title><g id="svg_1" class="selected" fill-opacity="1" fill="#ffffff"><path d="M372.1666669845581,22.166671752929688 l-350,350 c-27.3,27.3 -27.3,71.6 0,99 l350,350 c27.3,27.3 71.6,27.3 99,0 c27.3,-27.3 27.3,-71.6 0,-99 L240.6666669845581,491.6666717529297 h671 c38.7,0 70,-31.3 70,-70 c0,-38.7 -31.3,-70 -70,-70 H240.6666669845581 l230.5,-230.5 c13.7,-13.7 20.5,-31.6 20.5,-49.5 c0,-17.9 -6.8,-35.8 -20.5,-49.5 C443.7666669845581,-5.13332824707031 399.4666669845581,-5.13332824707031 372.1666669845581,22.166671752929688 z" id="svg_2" fill="#ffffff" fill-opacity="1"/></g></g></svg>