<svg xmlns="http://www.w3.org/2000/svg" xmlns:xlink="http://www.w3.org/1999/xlink" version="1.1" style="enable-background:new 0 0 415.188 415.188;" xml:space="preserve" width="421.44927536732655" height="391.2608694901013"><rect id="backgroundrect" width="100%" height="100%" x="0" y="0" fill="none" stroke="none" class="" style=""/>
















<g class="currentLayer" style=""><title>Layer 1</title><path d="M413.5856377468109,64.48324601745605 c3.404,-6.636 2.831,-14.159 -0.15000000000000005,-20.404 c0.8400000000000002,-7.106 -1.02,-14.321 -7.746,-19.855 c-6.2620000000000005,-5.151 -12.523,-10.305 -18.781,-15.457 c-11.005,-9.055 -28.237,-11.913 -38.941,0 c-48.619,54.103 -99.461,105.856 -152.167,155.725 c-39.185,-36.605 -78.846,-72.713 -118.223,-108.868 c-13.82,-12.693 -33.824,-8.71 -42.519,6.411 c-12.665000000000001,6.286 -22.931,14.481 -31.42,28.468 c-4.042,6.664 -3.7270000000000003,15.076 0,21.764 c25.421,45.578 74.557,85.651 114.957,122.529 c-5.406,4.839 -10.772,9.724 -16.287,14.461 c-54.43,46.742 -91.144,76.399 -23.029,124.325 c0.919,0.6470000000000002 1.856,0.504 2.789,0.8820000000000002 c1.3050000000000002,0.6020000000000002 2.557,1.026 4.004,1.264 c0.45,0.017000000000000008 0.8700000000000002,0.09300000000000005 1.3130000000000002,0.05800000000000002 c1.4020000000000001,0.11400000000000003 2.774,0.4710000000000001 4.195,0.19200000000000006 c36.621,-7.18 70.677,-35.878 101.576,-67.48 c30.1,29.669 62.151,58.013 97.395,74.831 c8.391,4.005 18.395,1.6710000000000005 24.855,-3.931 c10.832,0.8180000000000002 20.708,-5.913 25.665,-15.586 c0.7340000000000002,-0.454 1.207,-0.7130000000000002 2.002,-1.21 c15.748,-9.838000000000001 17.187,-29.431 5.534,-42.936 c-26.313,-30.492 -54.284,-59.478 -82.798,-87.95 C317.1506377468109,181.55024601745606 381.25763774681093,127.44624601745605 413.5856377468109,64.48324601745605 z" id="svg_1" class="selected" fill="#ffffff" fill-opacity="1"/><g id="svg_2">
</g><g id="svg_3">
</g><g id="svg_4">
</g><g id="svg_5">
</g><g id="svg_6">
</g><g id="svg_7">
</g><g id="svg_8">
</g><g id="svg_9">
</g><g id="svg_10">
</g><g id="svg_11">
</g><g id="svg_12">
</g><g id="svg_13">
</g><g id="svg_14">
</g><g id="svg_15">
</g><g id="svg_16">
</g></g></svg>