<svg xmlns="http://www.w3.org/2000/svg" width="1028" height="1028" style=""><rect id="backgroundrect" width="100%" height="100%" x="0" y="0" fill="none" stroke="none"/>
  <metadata><?xpacket begin="﻿" id="W5M0MpCehiHzreSzNTczkc9d"?>
<x:xmpmeta xmlns:x="adobe:ns:meta/" x:xmptk="Adobe XMP Core 5.6-c142 79.160924, 2017/07/13-01:06:39        ">
   <rdf:RDF xmlns:rdf="http://www.w3.org/1999/02/22-rdf-syntax-ns#">
      <rdf:Description rdf:about=""/>
   </rdf:RDF>
</x:xmpmeta>
                                                                                                    
                                                                                                    
                                                                                                    
                                                                                                    
                                                                                                    
                                                                                                    
                                                                                                    
                                                                                                    
                                                                                                    
                                                                                                    
                                                                                                    
                                                                                                    
                                                                                                    
                                                                                                    
                                                                                                    
                                                                                                    
                                                                                                    
                                                                                                    
                                                                                                    
                                                                                                    
                           
<?xpacket end="w"?></metadata>
<defs>
    <style>
      .cls-1 {
        fill: #6495ed;
      }

      .cls-1, .cls-2 {
        fill-rule: evenodd;
      }

      .cls-2 {
        fill: #fff;
      }

      .cls-3 {
        fill: #daa520;
      }
    </style>
  </defs>
  
  
  
  
  
<g class="currentLayer" style=""><title>Layer 1</title><path class="cls-1" d="M868.521,169.417h6.948v6.95l24.317,20.849v6.949l10.421,6.95v6.95l10.421,6.949v6.95l6.948,3.475q1.737,6.948,3.474,13.9L938,252.813q1.735,6.95,3.473,13.9l6.948,3.475,3.474,13.9h3.474q3.473,10.423,6.947,20.849h3.474V315.36h3.474v6.949h3.474v10.425c22.232,50.9,31.264,99.19,31.264,173.741,0,30.591-.16,57.388-6.948,79.921V603.77h-3.473v13.9h-3.474v13.9h-3.474v13.9h-3.474v10.424h-3.474v10.425h-3.474q-1.735,8.685-3.473,17.374h-3.474v6.949h-3.474v10.425h-3.474q-3.472,10.423-6.947,20.849h-3.474l-3.474,13.9-6.948,3.475q-1.736,6.948-3.473,13.9l-6.948,3.475q-1.737,6.949-3.474,13.9l-6.948,3.475v6.95l-10.421,6.949v6.95l-10.421,6.95v6.949l-24.317,20.849v6.95l-20.843,17.374-3.474,6.949h-6.947l-17.37,20.849h-6.947L812.94,892.18h-6.947L799.045,902.6H792.1q-1.735,3.476-3.473,6.95h-6.948L778.2,916.5l-13.895,3.474-3.474,6.95-20.843,6.95v3.475L719.147,944.3v3.475l-17.369,3.475v3.475h-6.947V958.2H684.409v3.475H673.988v3.475H663.566v3.475H653.145V972.1H635.776v3.475h-13.9v3.474H604.511v3.475H580.2V986H510.718c-66.315,0-114.573-11.417-159.8-31.273H340.5v-3.475h-6.948v-3.475H323.132V944.3l-20.842-6.949v-3.475l-13.9-3.475-3.474-6.95-13.9-3.475-3.474-6.949-13.895-3.475-3.474-6.95h-6.947l-6.948-10.424h-6.948q-3.472-5.212-6.947-10.425h-6.948v-3.474c-8.912-7.467-15.224-17.328-27.79-20.849v-6.95c-14.336-3.868-13.364-10.512-20.843-20.849l-13.9-10.424v-3.475l-6.948-3.475v-6.95l-13.895-10.424v-6.95l-6.948-3.475v-6.949l-10.421-6.95-3.474-13.9-6.948-3.475-3.474-13.9-6.947-3.475-6.948-20.849H83.439l-3.474-13.9H76.492q-1.737-8.687-3.474-17.374H69.544V673.266H66.07v-6.949H62.6l-3.474-20.849H55.649L45.227,586.4H41.754V562.072c-13.109-46.453-1.347-138.627,10.421-173.741L62.6,339.683H66.07v-6.949h3.474V322.309h3.474V315.36h3.474V304.935h3.474l6.948-20.849h3.474l3.474-13.9,6.947-3.475,3.474-13.9,6.948-3.475v-6.95l6.947-3.474v-6.95l6.948-3.475V221.54l6.948-3.475v-6.95l10.421-6.95,3.474-10.424h3.474c6.657-7.944,14.206-12.942,17.369-24.324h6.947c3.815-13.812,12.357-12.613,20.843-20.849l17.369-20.849h6.948l10.421-13.9h6.948l6.948-10.424h6.947l3.474-6.95,13.895-3.475,3.474-6.95,13.9-3.475,3.474-6.95,20.843-6.95V65.173L323.132,61.7V58.223l17.37-3.475V51.273h10.421V47.8h6.948V44.324l20.842-3.475V37.374L437.768,26.95V23.475L528.087,20c68.013,0,116.89,10.9,163.27,31.273h10.421v3.475h6.948v3.475h10.421V61.7l20.843,6.95v3.475h6.948V75.6l13.895,3.475v3.475l10.421,3.475,3.474,6.95,13.9,3.475q1.735,3.475,3.473,6.95h6.948l6.948,10.424h6.947l6.948,10.425h6.947l20.843,24.323C857.98,156.052,864.694,155.066,868.521,169.417ZM378.713,496.05c11.481,2.373,13.336,6.092,27.791,6.95v-3.475h10.421l6.948-10.424h3.474V478.676c5.814-16.421.169-18.06-10.422-27.8q-1.736-3.476-3.473-6.95H389.135c-3.958,3.957-.012,1.384-6.948,3.475-3.281,6.259-4.81,5.471-6.947,13.9h-3.474C364.537,473.648,376.923,489.588,378.713,496.05Zm132.005-52.122V447.4h-6.947c-10.943,8.6-10.753,18.419-10.422,38.223,4.522,3.641,5.173,7.1,10.422,10.424,10.327,11.117,26.574,5.015,38.212,0,4.9-10.961,7.043-19.981,6.947-38.223-4.975-2.714-13.935-9.626-17.369-13.9H510.718ZM663.566,496.05c3.39-13.805,6.818-13.38,6.948-34.748-3.956-3.959-1.384-.012-3.474-6.949-14.981-8.24-13-10.5-38.212-10.425-7.219,12.33-15.469,15.4-17.369,34.748h3.474v6.95c2.48,5.592,5.407,7.388,10.421,10.424,6.532,6.927,1.66.18,10.422,3.475C649.686,504.756,649.563,499.409,663.566,496.05Z" id="svg_1"/><path class="cls-2" d="M509.534,824.745c-31.678-1.088-65.649-9.724-90.171-18.039L387.8,802.2v-4.51h-9.017v-4.51H365.26v-4.51l-27.051-9.019v-4.51h-9.017v-4.51l-18.035-4.51q-2.253-4.509-4.508-9.019h-9.017l-4.509-9.02h-9.017L270.58,730.039h-9.017L243.529,707.49q-13.524-11.274-27.052-22.549v-9.02L202.952,666.9l-4.509-13.53-9.017-4.51q-4.509-13.527-9.017-27.059l-9.017-4.509q-2.254-11.274-4.509-22.549h-4.509v-9.02h-4.508l-4.509-27.059h-4.508V540.627H144.34V518.078c-16.364-55.622,2.544-123.885,18.034-162.353V342.2h4.509v-9.019h4.509q4.507-13.529,9.017-27.059l9.017-4.51v-9.02q4.508-2.255,9.017-4.51v-9.019l13.526-9.02v-9.019l40.577-36.079,18.034-22.549H279.6q4.509-6.763,9.017-13.529h9.018q2.253-4.511,4.508-9.02l18.034-4.51,4.509-9.019,18.034-4.51v-4.51l18.035-4.51v-4.51h13.525v-4.509h9.017v-4.51H396.82v-4.51h13.526v-4.51H428.38v-4.51h22.543c52.255-15.658,137.192-11.177,184.851,4.51h18.035l85.663,36.079q2.253,4.509,4.508,9.019l18.034,4.51,4.509,9.02h9.017q4.509,6.764,9.017,13.529h9.017l36.069,40.588,27.051,22.549v9.02l9.018,4.51q2.253,6.764,4.508,13.529h4.509v9.02l9.017,4.51q2.255,9.018,4.508,18.039h4.509q2.254,9.018,4.509,18.039h4.508l4.509,27.059H910.8v13.529h4.509c6.139,17.5,16.706,108.924,9.017,135.295l-27.051,90.2h-4.509v9.02h-4.509v9.019l-9.017,4.51q-2.253,9.019-4.508,18.039l-9.017,4.51v9.02l-18.035,13.529v9.02l-36.068,31.568-9.017,13.53h-9.018l-13.525,18.039h-9.017l-4.509,9.02L753,761.608v4.509l-27.051,9.02L680.86,824.745l-27.051,22.549-4.509,9.02h-9.017L617.74,883.372h-9.017q-4.507,6.765-9.017,13.53h-9.017q-4.509,6.763-9.017,13.529h-9.018q-4.507,6.765-9.017,13.53H554.62q-2.255,4.509-4.508,9.019h-9.018c-3.566,2.008-1.756,9.779-9.017,9.02v-4.51C523.4,927.789,509.79,847.111,509.534,824.745ZM347.226,500.039c14.9,3.079,17.308,7.905,36.068,9.019v-4.51H396.82q4.509-6.764,9.017-13.529h4.509V477.49c7.546-21.313.22-23.44-13.526-36.079q-2.254-4.509-4.508-9.02h-31.56c-5.137,5.135-.016,1.8-9.018,4.51-4.258,8.123-6.243,7.1-9.017,18.039h-4.508C328.826,470.963,344.9,491.651,347.226,500.039Zm171.326-67.648v4.51h-9.018c-14.2,11.163-13.956,23.906-13.525,49.608,5.868,4.726,6.714,9.215,13.525,13.53,13.4,14.427,34.491,6.508,49.6,0,6.355-14.227,9.141-25.933,9.017-49.608-6.458-3.523-18.086-12.5-22.543-18.04H518.552Zm198.377,67.648c4.4-17.918,8.849-17.366,9.017-45.1-5.134-5.138-1.8-.016-4.509-9.019-19.444-10.694-16.876-13.628-49.594-13.53-9.369,16-20.076,19.991-22.543,45.1h4.509v9.019c3.219,7.258,7.018,9.589,13.525,13.53,8.478,8.989,2.155.233,13.526,4.509C698.914,511.337,698.755,504.4,716.929,500.039Z" id="svg_2"/><circle class="cls-3" cx="364" cy="469" r="60" id="svg_3" fill="#ffffff" fill-opacity="1"/><circle id="Ellipse_1_copy" data-name="Ellipse 1 copy" class="cls-3" cx="533" cy="469" r="60" fill="#ffffff" fill-opacity="1"/><circle id="Ellipse_1_copy_2" data-name="Ellipse 1 copy 2" class="cls-3" cx="702" cy="469" r="60" fill="#ffffff" fill-opacity="1"/><polyline fill="none" stroke="#000000" stroke-dashoffset="" fill-rule="nonzero" marker-start="" marker-mid="" marker-end="" id="svg_4" points="385.42852396685566,503.9999571698082 385.42852396685566,503.9999571698082 " style="color: rgb(0, 0, 0);"/><path fill="#ffffff" fill-opacity="1" stroke="none" stroke-opacity="1" stroke-width="1" stroke-dasharray="none" stroke-linejoin="miter" stroke-linecap="butt" stroke-dashoffset="" fill-rule="nonzero" opacity="1" marker-start="" marker-mid="" marker-end="" d="M256,453.5 C256,408.47237569060775 298.96132596685084,372 352,372 C405.03867403314916,372 448,408.47237569060775 448,453.5 C448,498.52762430939225 405.03867403314916,535 352,535 C298.96132596685084,535 256,498.52762430939225 256,453.5 Z" id="svg_5"/><path fill="#ffffff" fill-opacity="1" stroke="none" stroke-opacity="1" stroke-width="1" stroke-dasharray="none" stroke-linejoin="miter" stroke-linecap="butt" stroke-dashoffset="" fill-rule="nonzero" opacity="1" marker-start="" marker-mid="" marker-end="" d="M465,460.5 C465,413.26243093922653 496.3259668508287,375 535,375 C573.6740331491712,375 605,413.26243093922653 605,460.5 C605,507.73756906077347 573.6740331491712,546 535,546 C496.3259668508287,546 465,507.73756906077347 465,460.5 Z" id="svg_7"/><path fill="#ffffff" fill-opacity="1" stroke="none" stroke-opacity="1" stroke-width="1" stroke-dasharray="none" stroke-linejoin="miter" stroke-linecap="butt" stroke-dashoffset="" fill-rule="nonzero" opacity="1" marker-start="" marker-mid="" marker-end="" d="M616,469 C616,424.8011049723757 655.6049723756906,389 704.5,389 C753.3950276243094,389 793,424.8011049723757 793,469 C793,513.1988950276243 753.3950276243094,549 704.5,549 C655.6049723756906,549 616,513.1988950276243 616,469 Z" id="svg_9"/></g></svg>