<svg xmlns="http://www.w3.org/2000/svg" xmlns:xlink="http://www.w3.org/1999/xlink" version="1.1" style="enable-background:new 0 0 486.39 486.39;" xml:space="preserve" width="486.39" height="486.39"><rect id="backgroundrect" width="100%" height="100%" x="0" y="0" fill="none" stroke="none"/>
















<g class="currentLayer" style=""><title>Layer 1</title><path id="XMLID_326_" d="M429.752,242.309c1.946-2.677,3.327-5.81,3.327-9.371c0-5.868-3.276-10.76-7.928-13.608  c4.651-2.85,7.928-7.739,7.928-13.609c0-7.963-5.842-14.274-13.405-15.634V134.22h50.343c8.921,0,16.138-7.214,16.138-16.141V55.822  c0-8.929-7.217-16.143-16.138-16.143H221.474V16.26c0-8.928-7.218-16.142-16.125-16.142h-62.287  c-8.909,0-16.126,7.214-16.126,16.142v23.42H16.14C7.217,39.68,0,46.894,0,55.822v62.257c0,8.927,7.217,16.141,16.14,16.141h8.09  l102.706,170.612v165.299c0,8.925,7.217,16.141,16.126,16.141h62.287c8.907,0,16.125-7.216,16.125-16.141V304.88l102.724-170.66  h71.167v55.866c-7.566,1.359-13.402,7.671-13.402,15.634c0,5.87,3.272,10.76,7.925,13.609c-4.652,2.849-7.925,7.74-7.925,13.608  c0,3.578,1.377,6.694,3.34,9.371c-35.213,21.428-56.644,89.045-56.644,120.669c0,43.486,35.388,78.872,78.879,78.872  c43.485,0,78.853-35.386,78.853-78.872C486.39,331.342,464.948,263.704,429.752,242.309z M80.959,134.22h45.977v76.355  L80.959,134.22z M221.474,210.626V134.22h45.987L221.474,210.626z M407.537,417.542c-30.083,0-54.569-24.48-54.569-54.564  c0-35.863,28.913-103.167,54.569-103.167c25.649,0,54.549,67.304,54.549,103.167C462.086,393.061,437.621,417.542,407.537,417.542z" class="selected" fill="#ffffff" fill-opacity="1"/><g id="svg_1">
</g><g id="svg_2">
</g><g id="svg_3">
</g><g id="svg_4">
</g><g id="svg_5">
</g><g id="svg_6">
</g><g id="svg_7">
</g><g id="svg_8">
</g><g id="svg_9">
</g><g id="svg_10">
</g><g id="svg_11">
</g><g id="svg_12">
</g><g id="svg_13">
</g><g id="svg_14">
</g><g id="svg_15">
</g></g></svg>