<svg xmlns="http://www.w3.org/2000/svg" xmlns:xlink="http://www.w3.org/1999/xlink" version="1.1" width="517" height="333.4927546018889" style="" xml:space="preserve"><rect id="backgroundrect" width="100%" height="100%" x="0" y="0" fill="none" stroke="none"/>
















<g class="currentLayer" style=""><title>Layer 1</title><g id="svg_1" class="selected" fill="#daa520" fill-opacity="1">
	<path d="M256,5.4202880859375 C144.341,5.4202880859375 47.559,70.44128808593749 0,165.4202880859375 c47.559,94.979 144.341,160 256,160 c111.656,0 208.439,-65.021 256,-160 C464.441,70.44128808593749 367.656,5.4202880859375 256,5.4202880859375 zM382.225,90.2722880859375 c30.082,19.187 55.572,44.887 74.719,75.148 c-19.146,30.261 -44.639,55.961 -74.719,75.148 C344.428,264.6772880859375 300.779,277.4202880859375 256,277.4202880859375 c-44.78,0 -88.428,-12.743 -126.225,-36.852 c-30.08,-19.188 -55.57,-44.888 -74.717,-75.148 c19.146,-30.262 44.637,-55.962 74.717,-75.148 c1.959,-1.25 3.938,-2.461 5.929,-3.6500000000000004 C130.725,100.28628808593751 128,115.0332880859375 128,130.4202880859375 c0,70.691 57.308,128 128,128 c70.691,0 128,-57.309 128,-128 c0,-15.387 -2.725,-30.134 -7.703,-43.799 C378.285,87.81028808593749 380.266,89.0222880859375 382.225,90.2722880859375 zM256,114.4202880859375 c0,26.51 -21.49,48 -48,48 s-48,-21.49 -48,-48 s21.49,-48 48,-48 S256,87.91028808593751 256,114.4202880859375 z" id="svg_2" fill="#daa520" fill-opacity="1"/>
</g><g id="svg_3">
</g><g id="svg_4">
</g><g id="svg_5">
</g><g id="svg_6">
</g><g id="svg_7">
</g><g id="svg_8">
</g><g id="svg_9">
</g><g id="svg_10">
</g><g id="svg_11">
</g><g id="svg_12">
</g><g id="svg_13">
</g><g id="svg_14">
</g><g id="svg_15">
</g><g id="svg_16">
</g><g id="svg_17">
</g></g></svg>