<svg xmlns="http://www.w3.org/2000/svg" xmlns:xlink="http://www.w3.org/1999/xlink" version="1.1" width="581.8985507346533" height="512.5652172861417" style="" xml:space="preserve"><rect id="backgroundrect" width="100%" height="100%" x="0" y="0" fill="none" stroke="none"/>
















<g class="currentLayer" style=""><title>Layer 1</title><g id="svg_1" class="selected" fill="#ffffff" fill-opacity="1">
	<g id="svg_2" fill="#ffffff" fill-opacity="1">
		<path d="M103.53482600402832,368.56421767377856 l44.333,-44.332 c-24.89,-15.037 -47.503,-33.984 -66.763,-56.379 c29.187,-33.941 66.053,-60.018 106.947,-76.426 c-6.279,14.002 -9.853,29.486 -9.853,45.827 c0,16.597 3.696,32.3 10.165,46.476 l35.802,-35.797 c-5.698,-5.594 -9.248,-13.36 -9.248,-21.977 c0,-17.02 13.801,-30.82 30.82,-30.82 c8.611,0 16.383,3.55 21.971,9.248 l32.534,-32.534 l36.635,-36.628 l18.366,-18.373 c-21.206,-4.186 -42.896,-6.469 -64.848,-6.469 c-107.663,0 -209.732,52.155 -273.038,139.518 L4.34782600402832,267.85321767377854 l13.011,17.957 C41.17782600402832,318.6812176737785 70.49882600402832,346.56421767377856 103.53482600402832,368.56421767377856 z" id="svg_3" fill="#ffffff" fill-opacity="1"/>
		<path d="M463.55582600402835,158.56321767377852 l-44.854,44.854 c30.539,16.071 58.115,37.846000000000004 80.986,64.437 c-52.167,60.662 -128.826,96.273 -209.292,96.273 c-10.3,0 -20.533,-0.6000000000000002 -30.661,-1.7440000000000002 l-52.375,52.375 c26.903,6.8870000000000005 54.762,10.57 83.036,10.57 c107.663,0 209.738,-52.154 273.038,-139.523 l13.011,-17.957 l-13.011,-17.956 C536.3708260040283,212.56021767377854 502.1918260040283,181.71521767377854 463.55582600402835,158.56321767377852 z" id="svg_4" fill="#ffffff" fill-opacity="1"/>
		<path d="M290.3968260040283,349.4532176737785 c61.965,0 112.198,-50.234 112.198,-112.199 c0,-5.588 -0.545,-11.035 -1.335,-16.402 L273.9948260040283,348.12521767377854 C279.3628260040283,348.9142176737785 284.80882600402833,349.4532176737785 290.3968260040283,349.4532176737785 z" id="svg_5" fill="#ffffff" fill-opacity="1"/>
		<path d="M253.16282600402832,342.9962176737785 L396.13782600402834,200.02021767377855 l4.994,-4.994 l45.796,-45.796 l86.764,-86.77 c13.543,-13.543 13.543,-35.502 0,-49.046 c-6.77,-6.769 -15.649000000000001,-10.159 -24.523,-10.159 s-17.754,3.384 -24.522,10.159 l-108.33,108.336 l-22.772,22.772 l-29.248,29.248 l-48.14,48.14 l-34.456,34.456 l-44.027,44.027 l-33.115,33.115 l-45.056,45.055 l-70.208,70.203 c-13.543,13.543 -13.543,35.502 0,49.045 c6.769,6.77 15.649000000000001,10.16 24.523,10.16 s17.754,-3.3850000000000002 24.523,-10.16 l88.899,-88.898 l50.086,-50.086 L253.16282600402832,342.9962176737785 z" id="svg_6" fill="#ffffff" fill-opacity="1"/>
	</g>
</g><g id="svg_7">
</g><g id="svg_8">
</g><g id="svg_9">
</g><g id="svg_10">
</g><g id="svg_11">
</g><g id="svg_12">
</g><g id="svg_13">
</g><g id="svg_14">
</g><g id="svg_15">
</g><g id="svg_16">
</g><g id="svg_17">
</g><g id="svg_18">
</g><g id="svg_19">
</g><g id="svg_20">
</g><g id="svg_21">
</g></g></svg>