<svg xmlns="http://www.w3.org/2000/svg" version="1.1" width="24.918367385864258" height="34.06122589111328" style=""><rect id="backgroundrect" width="100%" height="100%" x="0" y="0" fill="none" stroke="none" class="" style=""/>
  
<g class="currentLayer" style=""><title>Layer 1</title><path d="M12.204081535339355,2.7142856121063232 C9.994081535339355,2.7142856121063232 8.204081535339355,4.504285612106322 8.204081535339355,6.714285612106323 C8.204081535339355,7.604285612106324 8.494081535339355,8.424285612106324 8.984081535339357,9.094285612106324 C7.034081535339354,10.214285612106323 5.7040815353393555,12.304285612106323 5.7040815353393555,14.714285612106323 C5.7040815353393555,16.744285612106324 6.644081535339357,18.554285612106323 8.114081535339356,19.744285612106324 C5.114081535339356,20.804285612106323 0.7040815353393555,25.29428561210632 0.7040815353393555,33.21428561210632 L23.704081535339355,33.21428561210632 C23.704081535339355,25.29428561210632 19.294081535339355,20.804285612106323 16.294081535339355,19.744285612106324 C17.764081535339354,18.554285612106323 18.704081535339355,16.744285612106324 18.704081535339355,14.714285612106323 C18.704081535339355,12.304285612106323 17.374081535339357,10.214285612106323 15.424081535339354,9.094285612106324 C15.914081535339356,8.424285612106324 16.204081535339355,7.604285612106324 16.204081535339355,6.714285612106323 C16.204081535339355,4.504285612106322 14.414081535339356,2.7142856121063232 12.204081535339355,2.7142856121063232 z" style="opacity: 1; fill-opacity: 1; fill-rule: nonzero; stroke: rgb(0, 0, 0); stroke-linecap: round; stroke-linejoin: miter; stroke-miterlimit: 4; stroke-dasharray: none; stroke-opacity: 1;" id="svg_1" class="selected" stroke-width="0" fill-opacity="1" fill="#daa520"/></g></svg>