<svg xmlns="http://www.w3.org/2000/svg" xmlns:xlink="http://www.w3.org/1999/xlink" version="1.1" width="485.81158447265625" height="486.7536315917969" style=""><rect id="backgroundrect" width="100%" height="100%" x="0" y="0" fill="none" stroke="none" class="" style=""/>

	
	
<g class="currentLayer" style=""><title>Layer 1</title><g id="svg_1">
</g><path d="M217.5901590194702,236.1727970046997 c-9.482,4.024 -12.565,11.602 -8.95,20.163 l28.877,-12.216 c-3.082,-7.3420000000000005 -12.431000000000001,-11.12 -19.927,-7.946 z" fill="#ffffff" id="svg_2" class="selected" fill-opacity="1"/><path d="M451.03115901947024,265.4721590194702 l35.87,-21.76 l-35.87,-21.822 l30.577,-28.785 l-39.639,-13.865 l23.921,-34.499 l-41.656,-5.304 l16.22,-38.738 l-41.831,3.481 l7.834,-41.278 l-40.223,12.083 l-0.9420000000000001,-41.964 l-36.823,20.203 l-9.625,-40.878 l-31.815,27.422 l-17.93,-38.001 l-25.416,33.403 l-25.436,-33.403 l-17.879,38.001 l-31.826,-27.422 l-9.625,40.878 l-36.833,-20.203 l-0.9420000000000001,41.964 l-40.222,-12.083 l7.844,41.278 l-41.861,-3.481 l16.241,38.738 l-41.646,5.304 l23.931,34.499 l-39.66,13.865 l30.587,28.785 l-35.87,21.822 l35.87,21.76 l-30.597,28.795 l39.66,13.824 l-23.931,34.519 l41.646,5.325 l-16.24,38.738 l41.861,-3.481 l-7.844,41.277 l40.222,-12.103 l0.9420000000000001,41.964 l36.834,-20.183 l9.625,40.878 l31.826,-27.423000000000002 l17.879,37.98 l25.447,-33.413 l25.406,33.423 l17.93,-37.98 l31.815,27.423000000000002 l9.625,-40.878 l36.823,20.183 l0.9420000000000001,-41.964 l40.223,12.103 l-7.834,-41.278 l41.83,3.481 l-16.22,-38.738 l41.656,-5.325 l-23.921,-34.519 l39.639,-13.824 l-30.567,-28.805 zM161.21815901947022,333.5061590194702 l-17.92,-42.322 c-3.349,-7.957 -8.438,-14.08 -17.48,-10.281 c-9.79,4.158 -9.728,11.52 -5.397,21.74 l17.285,40.817 l-31.826,13.445 l-33.874,-80.077 l29.041,-12.257 l5.314,12.503 c3.103,-12.656 8.694,-21.135 20.787,-26.255 c21.074,-8.919 36.26,-0.7380000000000001 45.578,21.258 l20.265,48.005 l-31.774,13.425 zM244.11115901947022,301.1691590194702 c-25.672,10.844 -51.753,4.577 -63.13,-22.323 c-11.111,-26.276 1.495,-51.435 27.166,-62.3 c29.655,-12.544 56.207,0.3990000000000001 68.034,29.645 l-60.702,25.62 c4.045,9.502 13.998,12.656 22.405,9.103 c5.059,-2.12 8.674,-6.359 8.98,-12.063 l30.392,-12.861 c2.908,22.2 -14.5,37.305 -33.147,45.179 zM371.7121590194702,244.51015901947022 l-32.256,-41.697 l-0.28600000000000003,0.16400000000000003 l8.694,51.641 l-31.038,13.097 l-60.303,-68.905 l31.017,-13.118 l33.188,44.339 l0.29700000000000004,-0.12300000000000001 l-8.571,-54.763 l26.921,-11.376 l33.157,44.339 l0.29700000000000004,-0.12300000000000001 l-8.55,-54.743 l30.116,-12.759 l8.325,90.9 l-31.007,13.128 z" fill="#ffffff" id="svg_3" class="" fill-opacity="1"/></g></svg>