<svg xmlns="http://www.w3.org/2000/svg" xmlns:xlink="http://www.w3.org/1999/xlink" version="1.1" enable-background="new 0 0 1000 1000" xml:space="preserve" width="1052" height="1360" style=""><rect id="backgroundrect" width="100%" height="100%" x="0" y="0" fill="none" stroke="none"/>
<metadata> Svg Vector Icons : http://www.onlinewebfonts.com/icon </metadata>

<g class="currentLayer" style=""><title>Layer 1</title><g id="svg_1" class="" fill-opacity="1" fill="#daa520"><g transform="translate(0,512) scale(0.10000000149011612,-0.10000000149011612) " id="svg_2" fill="#daa520"><path d="M9417.156931767404,1475.5993175396843 C9297.541422531545,1433.3274618158257 198.82802679294326,-3749.9450706710895 134.25945588701939,-3811.3948941936574 c-91.14979518055917,-84.64411965608596 -123.48367246985435,-157.64088714122772 -112.07755011320114,-244.19276275634763 C35.472517911135924,-4151.6783123602945 94.38761947506646,-4234.414676057347 193.0753737782834,-4292.048987661847 c60.79959134459495,-34.640831887722015 2339.742838203907,-853.6705875635148 3361.4338503420354,-1207.40870565176 l108.2093868792057,-38.45634380578994 v-1309.222628939152 c0,-1488.0496480464935 -7.537959122657775,-1420.7761484384537 146.19673351049423,-1472.6871921658517 c68.33755046725274,-25.001643884181973 83.61183605790139,-25.001643884181973 112.07755011320114,0 c66.45306068658829,53.81879968643189 712.1387697458267,1084.3082421898844 1243.961622583866,1982.1584414362906 c66.45306068658829,113.46127545833588 131.02163159251214,205.73641895055772 144.3122437298298,207.6441749095917 c17.059591698646546,0 2455.5893678784373,-859.3938554406166 2702.457529145479,-953.5767548918725 c208.88081463575364,-78.82044357061386 438.68938420414923,36.54858784675598 518.4330570280553,263.37073055505755 C8558.722244838416,-6741.406822644719 9739.999786297023,1150.678355253688 9739.999786297023,1260.3241187939557 c0,84.54371144771576 -49.39346898794174,180.73477506637573 -112.07755011320114,211.4596868276596 C9559.584685716569,1508.3323934683713 9506.422237167299,1510.2401494274063 9417.156931767404,1475.5993175396843 zM8190.3540845548505,-700.7485988845901 c17.059591698646546,-15.362455880641939 30.350203835964205,-42.27185572385788 30.350203835964205,-55.72655564546585 c0,-75.00493165254593 -687.4420352518558,-4633.336775243282 -702.7163208425045,-4662.254339253903 c-28.46571405529976,-53.81879968643189 -96.80326452255248,-96.09065541028977 -155.718366086483,-96.09065541028977 c-49.39346898794174,0 -2763.257120490074,951.6689989328383 -2793.6073243260385,980.4861547350883 c-11.406122356653214,11.546943962574005 1272.427336639166,1491.9655681729319 2406.1958988904953,2776.1865532279016 c74.09020348191261,84.54371144771576 121.49999901652336,146.09394317865372 106.32489709854126,136.4547551751137 c-15.175101917982103,-9.639188003540038 -736.8355042397976,-584.4761809229851 -1604.7918237447739,-1276.589961218834 C4610.517787001073,-3590.2960193624576 3869.81411952728,-4178.688120411881 3833.711262676656,-4207.505276214131 l-66.45306068658829,-51.911043727397924 l-512.7795876860619,180.73477506637573 c-281.08652833700177,100.0065755367279 -527.9546896040439,196.0972309470177 -545.0142813026905,213.36744278669357 c-19.04326515197754,15.362455880641939 -34.21836706995964,44.28001989126206 -34.21836706995964,61.55023173093795 c0,17.270211839675902 15.175101917982103,46.18777585029602 34.21836706995964,63.45798768997193 c26.581224274635314,25.001643884181973 5007.982000279427,2864.6461848020554 5302.359140753746,3024.1948279023172 C8110.610411730946,-662.2922550788007 8150.482248142898,-658.4767431607324 8190.3540845548505,-700.7485988845901 z" id="svg_3" fill="#daa520"/></g></g></g></svg>