<svg xmlns="http://www.w3.org/2000/svg" xmlns:xlink="http://www.w3.org/1999/xlink" version="1.1" enable-background="new 0 0 1000 1000" xml:space="preserve" width="678.454545702898" height="411.81819373911026" style=""><rect id="backgroundrect" width="100%" height="100%" x="0" y="0" fill="none" stroke="none"/>
<metadata> Svg Vector Icons : http://www.onlinewebfonts.com/icon </metadata>

<g class="currentLayer" style=""><title>Layer 1</title><g id="svg_1" class="" fill="#ffffff" fill-opacity="1"><g transform="translate(0,511) scale(0.10000000149011612,-0.10000000149011612) " id="svg_2" fill="#ffffff" fill-opacity="1"><path d="M3511.8395767077336,5035.762112262409 c-149.32021626234055,-37.31318553686142 -309.30134267807006,-134.6783333301544 -406.5990163564682,-243.98639945983888 c-29.35123997926712,-31.98273046016693 -242.63691716194154,-254.64730961322783 -474.61292417049407,-493.30325399637223 c-315.98128005266193,-322.59374331235887 -423.939863884449,-442.63019371032715 -423.939863884449,-466.5835044980049 c0,-62.68345273733139 40.012150132656096,-165.311581492424 85.35475534200668,-217.33412407636644 c94.66618319749833,-110.65754842758179 314.6317977547646,-189.33236639499665 487.9053248047829,-171.99151886701586 c307.9518603801727,28.00175768136978 661.246325969696,229.27704241275788 1155.8315881490707,655.9158708930016 l65.31494321823119,54.654033064842224 l505.24617233276365,-439.93122911453247 C5347.540346537484,2981.3777360583945 5304.896705923929,3021.3898861910507 5351.588793431176,2926.7237029935523 c77.32533566951751,-159.9811264157295 81.30630844831467,-315.98128005266193 14.641882932186126,-494.5852621793747 c-37.31318553686142,-97.29767367839813 -146.62125166654587,-218.6161322593689 -246.61788994073868,-270.6386748433113 l-73.34436289072038,-38.66266783475876 v-68.01390781402587 c0,-189.26489228010178 -62.68345273733139,-337.30310035943984 -199.9932765483856,-470.63195139169693 c-52.02254258394241,-50.67306028604507 -89.33572812080384,-94.66618319749833 -82.655790746212,-98.64715597629547 c26.652275383472443,-17.340847527980802 190.61437457799911,-35.96370323896408 310.6508249759674,-35.96370323896408 c246.61788994073868,0 509.22714511156084,70.6453982949257 622.5836581349373,167.94307197332384 l56.00351536273956,47.974095690250394 v1130.5287950634956 v1130.5287950634956 l-722.5802964091301,459.971041238308 c-805.2360871553421,511.9261097073555 -869.201548075676,549.2392952442169 -1050.5044947981835,610.5732656836509 c-106.67657564878463,35.96370323896408 -149.32021626234055,43.99312291145325 -273.2701653242111,46.692087507247926 C3626.4780979141124,5046.423022415797 3538.491852091206,5042.442049637 3511.8395767077336,5035.762112262409 z" id="svg_3" fill="#ffffff" fill-opacity="1"/><path d="M2553.3023005112536,4770.4538924957915 c-174.62300934791566,-47.974095690250394 -331.97264528274536,-126.64891365766525 -505.24617233276365,-253.2978273153305 c-46.692087507247926,-33.332212758064266 -305.3203698992729,-205.32373162508011 -573.2600801467896,-381.2962232708931 l-487.9053248047829,-321.31173512935635 l-3.98097277879715,-1074.525279700756 l-2.6989645957946777,-1074.525279700756 l75.97585337162018,-8.029419672489167 c42.64364061355591,-3.98097277879715 230.62652471065522,-17.340847527980802 417.25992650985717,-29.35123997926712 c213.28567718267442,-13.359874749183655 351.944983291626,-28.00175768136978 373.26680359840395,-38.66266783475876 c18.69032982587814,-9.311427855491639 119.96897628307343,-81.30630844831467 226.64555193185805,-158.63164411783217 c295.9414679288864,-215.9846417784691 455.92259434461596,-282.6490672945976 713.2688685536384,-297.29095022678376 c150.6696985602379,-7.9619455575943014 239.93795256614686,5.330455076694489 346.6145282149315,57.3529976606369 c70.6453982949257,33.332212758064266 73.34436289072038,33.332212758064266 149.32021626234055,12.010392451286316 c103.97761105298996,-29.35123997926712 375.96576819419863,-41.361632430553435 473.26344187259673,-21.321820306777955 c42.64364061355591,9.311427855491639 110.65754842758179,33.332212758064266 153.3011890411377,54.654033064842224 c81.30630844831467,41.29415831565857 206.67321392297745,154.65067133903503 238.65594438314437,217.33412407636644 c17.340847527980802,33.332212758064266 25.302793085575104,35.96370323896408 96.01566549539567,35.96370323896408 c233.3254893064499,0 486.6233166217804,143.98976118564607 575.9590447425843,326.6421902060509 c29.35123997926712,59.984488141536715 33.332212758064266,84.00527304410934 34.681695055961605,231.97600700855256 l1.349482297897339,165.311581492424 l61.333970439434054,22.671302604675294 c90.61773630380631,34.681695055961605 147.9707339644432,74.62637107372284 214.63515948057176,147.9707339644432 c133.32885103225706,149.32021626234055 149.32021626234055,330.623162984848 41.361632430553435,494.5852621793747 c-24.020784902572633,35.96370323896408 -991.8694889545441,891.8728506803512 -1155.8315881490707,1021.1532548189164 c-19.972338008880616,15.991365230083465 -40.012150132656096,5.330455076694489 -166.66106379032135,-94.66618319749833 c-453.2911038637161,-354.64394788742067 -837.218817615509,-529.2669572353362 -1166.4924983024596,-529.2669572353362 c-199.9932765483856,0 -351.944983291626,58.635005843639384 -477.24441465139387,185.28391950130464 c-85.28728122711182,85.35475534200668 -140.0087884068489,186.63340179920198 -161.33060871362684,299.98991482257844 c-28.00175768136978,151.95170674324035 -42.64364061355591,130.62988643646239 421.3083734035492,594.5819004535675 c279.95010269880294,279.95010269880294 413.27895373106,422.59038158655164 402.6180435776711,429.2703189611435 C2839.932340584649,4803.786105253856 2641.288546334161,4794.474677398364 2553.3023005112536,4770.4538924957915 z" id="svg_4" fill="#ffffff" fill-opacity="1"/><path d="M157.56637705410822,4029.250740375678 c-24.020784902572633,-10.660910153388977 -56.00351536273956,-38.66266783475876 -70.6453982949257,-62.68345273733139 C60.268703375710174,3923.923647024791 60.268703375710174,3902.601826718013 60.268703375710174,2782.7339418079064 c0,-1103.8765196800232 1.349482297897339,-1141.1897052168845 25.302793085575104,-1178.502890753746 c46.692087507247926,-69.29591599702836 66.66442551612853,-73.34436289072038 347.96401051282885,-73.34436289072038 c281.2995849967003,0 301.2719230055809,3.98097277879715 347.96401051282885,73.34436289072038 c24.020784902572633,37.31318553686142 25.302793085575104,74.69384518861771 25.302793085575104,1178.502890753746 c0,1119.8678849101068 0,1141.1897052168845 -26.652275383472443,1183.8333458304405 c-43.99312291145325,71.99488059282304 -89.33572812080384,82.655790746212 -349.3134928107262,82.655790746212 C262.8934704049957,4047.9410702015566 188.26709933127268,4042.6106151248623 157.56637705410822,4029.250740375678 z" id="svg_5" fill="#ffffff" fill-opacity="1"/><path d="M6010.136154805077,4022.5708030010865 c-87.9862458229065,-53.304550766944885 -84.00527304410934,12.010392451286316 -84.00527304410934,-1239.83686119318 c0,-1245.1673162698746 -3.98097277879715,-1190.5132832050324 80.02430026531219,-1233.1569238185882 c59.984488141536715,-30.63324816226959 533.2479300141334,-29.35123997926712 587.9019630789757,2.6989645957946777 c81.30630844831467,47.974095690250394 78.67481796741485,-1.349482297897339 78.67481796741485,1239.83686119318 c0,1110.48898293972 0,1131.878277361393 -26.652275383472443,1174.521917974949 c-43.99312291145325,71.99488059282304 -89.33572812080384,82.655790746212 -355.9259560704231,82.655790746212 C6078.150062619103,4049.223078384559 6048.798822639836,4046.5915879036593 6010.136154805077,4022.5708030010865 z" id="svg_6" fill="#ffffff" fill-opacity="1"/></g></g></g></svg>